<?xml version="1.0" encoding="utf-8"?>
<!-- Generator: Adobe Illustrator 23.0.1, SVG Export Plug-In . SVG Version: 6.00 Build 0)  -->
<svg version="1.1" id="Layer_1" xmlns="http://www.w3.org/2000/svg" xmlns:xlink="http://www.w3.org/1999/xlink" x="0px" y="0px"
	 viewBox="0 0 101.1 124.5" style="enable-background:new 0 0 101.1 124.5;" xml:space="preserve">
<style type="text/css">
	.st0{fill:#FFFFFF;}
</style>
<g>
	<g>
		<g>
			<path class="st0" d="M47.2,19.2l0.2,0.2c0.1,0.1,0.2,0.1,0.2,0.1l0.3-0.1l0.7-0.2l0.7,1.2l0.5,0.9c0.1,0.1,0.2,0.1,0.3,0l0.5-0.9
				l0.7-1.2l0.7,0.2l0.3,0.1c0.1,0,0.2,0,0.2-0.1l0.2-0.2l0.6-0.6c0.2-0.2,0.3-0.6,0.2-0.9l-0.2-0.5h-0.5h-1.5H51h0l-0.5-0.8
				c-0.1-0.1-0.2-0.2-0.4-0.2c-0.2,0-0.3,0.1-0.4,0.2L49,17.3h0h-0.3h-1.5h-0.5l-0.2,0.5c-0.1,0.3-0.1,0.7,0.2,0.9L47.2,19.2z
				 M51.3,18c0,0,0.1-0.1,0.1-0.1H53c0.1,0,0.1,0,0.1,0.1c0,0.1,0,0.1,0,0.2l-0.6,0.6c0,0-0.1,0-0.1,0c0,0,0,0,0,0l-0.8-0.2
				c0,0-0.1,0-0.1-0.1l-0.2-0.3C51.3,18.1,51.3,18,51.3,18z M49.1,18.6l0.4-0.6c0,0,0.1-0.1,0.1-0.1h0.7c0,0,0.1,0,0.1,0.1l0.4,0.6
				c0,0,0,0.1,0,0.1L50.1,20c0,0-0.1,0.1-0.1,0.1s-0.1,0-0.1-0.1l-0.7-1.3C49.1,18.7,49.1,18.7,49.1,18.6z M46.9,18
				c0-0.1,0.1-0.1,0.1-0.1h1.5c0,0,0.1,0,0.1,0.1c0,0,0,0.1,0,0.1l-0.2,0.3c0,0,0,0.1-0.1,0.1l-0.8,0.2c0,0,0,0,0,0c0,0-0.1,0-0.1,0
				l-0.6-0.6C46.9,18.1,46.9,18.1,46.9,18z"/>
		</g>
		<g>
			<path class="st0" d="M55.6,27.8v-0.2H54c-0.3,0-0.6,0.3-0.6,0.6v0.2h1.5C55.3,28.4,55.6,28.1,55.6,27.8z"/>
			<path class="st0" d="M65.4,27.2h-0.2h-0.1c0,0,0,0,0,0c-0.5,0-1.1,0.2-1.4,0.6c-0.4,0.4-0.6,0.9-0.6,1.4c0,0.5,0.2,1.1,0.6,1.4
				l0.1,0.1c0.5,0.5,0.5,1.2,0,1.7l-0.1,0.1l-1.4-1l0.4-0.3l0-3.6c0-0.6-0.2-1.2-0.7-1.6s-1-0.7-1.6-0.7h-2.3l0,0h-0.7
				c-0.1,0-0.2,0.2-0.1,0.3l0.3,0.4l-1.4,0.5c-0.2,0.1-0.3,0.2-0.3,0.4v1.6c0,0.1,0,0.2,0.1,0.3l0.4,0.4c0.1,0.1,0.2,0.1,0.3,0.1
				h0.7l-0.1,0.1c-0.1,0.1-0.2,0.2-0.3,0.3H56l0,0c-0.4-0.6-1-0.8-1.6-0.8l-0.9,0v1.1c0,0.2,0.1,0.4,0.2,0.5l0.8,1c0,0,0,0-0.1,0
				h-0.9v1.2c0,0.2,0.1,0.4,0.2,0.5l1,1.3c0.1,0.2,0.3,0.3,0.5,0.3h1.8c-0.1,0.2-0.1,0.3-0.1,0.5v0.7l0.6,0.5c0,0,0,0,0,0L57,36.9
				h-0.7c-0.7,0-1.3,0.6-1.3,1.3v1.1h3.4l2.6-2.8l0.7,0.4h-0.2c-0.7,0-1.3,0.6-1.3,1.3v1.1h3l1.9-1.5l0,0c0.2-0.2,0.3-0.4,0.3-0.6
				c0-0.2-0.1-0.4-0.2-0.6l-1.1-1.3v-1.8l0.3-0.3c0.8-0.8,0.8-2.1,0-2.9l-0.1-0.1c-0.2-0.2-0.3-0.5-0.3-0.8c0-0.3,0.1-0.6,0.4-0.8
				c0.2-0.2,0.5-0.3,0.8-0.3c0,0,0,0,0,0h0.1v0.6c0,0.3,0.3,0.6,0.6,0.6H66v-1.4C66,27.5,65.8,27.2,65.4,27.2z M60.4,26.3
				c0.4,0,0.7,0.2,1,0.4c0.3,0.3,0.4,0.6,0.4,1l0,3.2l-2.1,1.6l-1.5-1L58,31.4c-0.2-0.1-0.3-0.3-0.3-0.5c0-0.2,0.1-0.4,0.2-0.6
				l0.4-0.3l1.2-1l0,0c0.1-0.1,0.2-0.3,0.2-0.4v-1c0-0.2-0.1-0.3-0.2-0.4l-0.6-0.7H60.4z M56.9,28.7l-0.2-0.2v-1.1l1.4-0.6l0.6,0.7
				v0.8l-0.4,0.4H56.9z M57.4,32.2L57,32.6h-1l0-0.1c-0.1-0.1-0.2-0.2-0.3-0.3H57.4z M54.3,30.1l0-0.3h0.1c0.4,0,0.6,0.2,0.9,0.5
				l0.3,0.4h1.3c0,0.1,0,0.1,0,0.2c0,0.1,0.1,0.3,0.1,0.4h-1.7L54.3,30.1z M58.1,38.5h-2.2v-0.3c0-0.2,0.2-0.4,0.4-0.4h0.9l0.7-0.5
				l0,0c0.3-0.3,0.3-0.9,0-1.2l-0.3-0.3v-0.3c0-0.3,0.2-0.5,0.5-0.5l0.2,0H59v0l0.9,0l0.4,0.3v0.4c0,0.1,0,0.3,0.1,0.4L58.1,38.5z
				 M64.5,37.1L64.5,37.1C64.6,37.1,64.6,37.1,64.5,37.1C64.6,37.1,64.6,37.1,64.5,37.1l-1.6,1.4h-1.8v-0.3c0-0.2,0.2-0.4,0.4-0.4
				h1.1l0.1-0.1c0.2-0.2,0.2-0.4,0.2-0.6c0-0.2-0.1-0.4-0.3-0.5l-1.6-1v-0.7l-0.7-0.6c-0.1-0.1-0.3-0.2-0.5-0.2L59,34v0h-3.8l-1-1.2
				l0-0.3h0.1c0.4,0,0.7,0.2,1,0.5l0.3,0.4h1.8l0.9-0.9l1.6,1l1.8-1.4l1.7,1.2v1.9c0,0.2,0.1,0.4,0.2,0.5L64.5,37.1z"/>
			<path class="st0" d="M58.5,25.1H61c0.1,0,0.2-0.1,0.2-0.2v-1.1c0-0.1,0-0.1-0.1-0.1c0,0-0.1,0-0.1,0l-0.6,0.5l-0.5-0.5
				c-0.1-0.1-0.1-0.1-0.2,0l-0.6,0.5l-0.6-0.5c0,0-0.1,0-0.1,0c0,0-0.1,0.1-0.1,0.1v1.1C58.3,25,58.4,25.1,58.5,25.1z"/>
		</g>
		<g>
			<path class="st0" d="M58.3,15.9L58.3,15.9l-1.8,0c-1.4,0-2.5-1-2.7-2.4l-0.1-1.1l0.1-0.4c1-0.7,1.5-1.8,1.5-2.7
				c0-0.6-0.3-1.4-0.8-2c-0.3-1.7-1.5-3.1-3-3.6c-0.2-0.8-0.5-1.6-1.1-2.2L50,1l-0.4,0.5c-0.5,0.6-0.9,1.4-1.1,2.2
				c-1.6,0.5-2.8,1.9-3.1,3.7c-0.5,0.6-0.8,1.3-0.8,2c0,0.9,0.6,2.1,1.6,2.8l0,0.1c0,0,0,0,0,0.1l-0.2,1.3c-0.2,1.4-1.4,2.4-2.7,2.4
				h-1.8v0H23.4v0.4c0,0.3,0.2,0.7,0.6,0.8c0.9,0.2,1.5,1,1.5,2l0,37.3c0,5,3.4,9.2,8.6,10.3l5.6,1.2c4.8,1.1,8.7,2.8,9.7,3.4
				l0.2,0.1c0.3,0.2,0.7,0.2,1.1,0l0.2-0.1c1-0.5,4.8-2.3,9.7-3.4l5.6-1.2c5.1-1.1,8.6-5.3,8.6-10.3l0-37.3c0-1,0.6-1.7,1.5-2
				c0.3-0.1,0.6-0.4,0.6-0.8v-0.4H58.3z M53.1,7.5c0.6,0.4,1.1,1.1,1.1,1.8c0,0.7-0.5,1.4-1.1,1.8V7.5z M50,4.5c1.2,0,2.3,0.7,3,1.7
				c-0.1,0-0.2-0.1-0.3-0.1l-2.3-0.6c-0.2-0.1-0.5-0.1-0.7,0l-2.3,0.6c-0.1,0-0.2,0.1-0.3,0.1C47.7,5.2,48.8,4.5,50,4.5z M49.6,13.2
				c0.1,0,0.2,0,0.3,0c0.1,0,0.2,0,0.3,0l2.1-0.6C51.9,13.5,51,14,50,14c-1,0-1.9-0.6-2.3-1.4L49.6,13.2z M48.1,11.6V7.1l1.4-0.4
				v5.3L48.1,11.6z M50.6,11.9V6.7L52,7.1v4.5L50.6,11.9z M45.8,9.3c0-0.7,0.5-1.4,1.1-1.8v3.6C46.3,10.7,45.8,10.1,45.8,9.3z
				 M43.5,17c1.8,0,3.4-1.3,3.8-3.1c0.7,0.8,1.7,1.2,2.8,1.2c1.1,0,2-0.4,2.8-1.2c0.4,1.8,2,3,3.8,3H59c-0.1,1.3-1.2,2.3-2.6,2.3
				c-0.2,0-0.4,0-0.6-0.1l-0.4-0.1l-0.2,0.4C54,21.4,52,22.6,50,22.6c-2.1,0-4-1.2-5.2-3.1l-0.2-0.4l-0.4,0.1
				c-0.2,0-0.4,0.1-0.6,0.1c-1.4,0-2.5-1-2.6-2.3H43.5z M52.3,43.2L52.3,43.2c-0.1,0-0.2,0-0.3,0l-0.7-0.7c0-0.1,0-0.1,0-0.2v-1
				c0-0.5-0.4-0.9-0.9-0.9h-0.9c-0.1,0-0.2,0-0.3,0l-0.7-0.7c0-0.1,0-0.1,0-0.2v-0.1h3.8V43.2z M53.2,44C53.3,44,53.3,44,53.2,44
				l0,1c0,0,0,0,0,0h-0.9c0,0,0,0,0,0v-1c0,0,0,0,0,0H53.2z M47.6,44.1v-3.8h0c0.1,0,0.2,0,0.3,0l0.7,0.7c0,0.1,0,0.1,0,0.2v1
				c0,0.5,0.4,0.9,0.9,0.9h0.9c0.1,0,0.2,0,0.3,0l0.7,0.7c0,0.1,0,0.1,0,0.2v0.1H47.6z M46.7,39.5C46.7,39.5,46.7,39.5,46.7,39.5
				l0-1c0,0,0,0,0,0h0.9c0,0,0,0,0,0v1c0,0,0,0,0,0H46.7z M49.5,42.2v-1c0,0,0,0,0,0h0.9c0,0,0,0,0,0v1c0,0,0,0,0,0L49.5,42.2
				C49.5,42.3,49.5,42.2,49.5,42.2z M49.5,38.5h-1v-0.1c0-0.5-0.4-0.9-0.9-0.9h-0.9c-0.5,0-0.9,0.4-0.9,0.9v1c0,0.5,0.4,0.9,0.9,0.9
				h0v0.9H31.2V21.9c0-0.2,0.2-0.4,0.4-0.4h13.3c0.3,0.3,0.7,0.7,0.9,0.9c1.1,0.8,2.4,1.3,3.7,1.4V38.5z M46.8,42.2v2.3
				c0,0.2,0.2,0.4,0.4,0.4h2.3v20.7c-1.4-0.7-4.3-2.1-7.7-2.9l-6.6-1.5c-2.4-0.5-4-2.6-4-5V42.2H46.8z M50.5,45h0.9V45
				c0,0.5,0.4,0.9,0.9,0.9h0.9c0.5,0,0.9-0.4,0.9-0.9v-1c0-0.5-0.4-0.9-0.9-0.9h0v-0.9h15.6V56c0,2.6-1.8,4.8-4.3,5.3l-6.4,1.4
				c-3.3,0.7-6.2,2.1-7.6,2.8V45z M53.2,41.2V39c0-0.2-0.2-0.4-0.4-0.4h-2.3V23.7c1.3-0.1,2.6-0.6,3.6-1.4c0.3-0.2,0.7-0.6,1-0.9
				h13.3c0.2,0,0.4,0.2,0.4,0.4v19.4H53.2z M73.4,19.1l0,37.3c0,4.5-3.1,8.2-7.7,9.2l-5.6,1.2c-4.4,1-8.5,2.7-10,3.5L50,70.4
				l-0.2-0.1c-1.5-0.8-5.5-2.5-10-3.5l-5.6-1.2c-4.6-1-7.7-4.7-7.7-9.2l0-37.3c0-0.8-0.3-1.5-0.7-2.1h14c0.1,1.7,1.4,3.1,3.1,3.4
				H30.5c-0.2,0-0.4,0.2-0.4,0.4v35.5c0,2.9,2,5.4,4.8,6l6.6,1.5c3.7,0.8,6.9,2.5,7.8,3l0.6,0.3l0.6-0.3c0.9-0.5,4.1-2.2,7.8-3
				l6.4-1.4c3-0.7,5.1-3.3,5.1-6.3V20.8c0-0.2-0.2-0.4-0.4-0.4H57c1.8-0.3,3.1-1.6,3.1-3.4h14C73.7,17.6,73.4,18.3,73.4,19.1z"/>
		</g>
		<path class="st0" d="M46.7,27.8l-1.3-1.7c-0.1-0.2-0.3-0.3-0.6-0.3c-0.2,0-0.4,0.1-0.6,0.4l-0.7,1.3c0,0-0.1,0-0.1,0l-0.5,0v-1.6
			c0-0.3-0.2-0.5-0.4-0.6c-0.2-0.1-0.5-0.1-0.7,0.1L39.7,27L38,25.7c-0.3-0.2-0.7-0.2-0.9,0l-2.8,2.2c-0.2,0.1-0.3,0.3-0.3,0.6
			c0,0.2,0,0.4,0.2,0.6c0,0,0.1,0,0.1,0c0,0,0,0,0.1,0l2.3-1.8c0,0,0,0,0,0l1-0.7l1.4,1.1c-0.2,0.1-0.3,0.3-0.3,0.5
			c0,0.2,0,0.4,0.2,0.6c0,0,0,0,0.1,0c0,0,0.1,0,0.1,0l0.8-0.6c0,0,0,0,0,0l2.4-1.9v1.3c0,0.5,0.4,0.9,0.9,0.9h0.5
			c0.4,0,0.7-0.2,0.9-0.5l0.5-0.9l1.5,2c0,0,0,0,0.1,0c0,0,0.1,0,0.1,0c0.2-0.1,0.3-0.3,0.3-0.5C46.9,28.2,46.9,28,46.7,27.8z"/>
		<g>
			<path class="st0" d="M39.2,32.5c-0.2,0-0.3,0.1-0.3,0.3s0.1,0.3,0.3,0.3s0.3-0.1,0.3-0.3S39.4,32.5,39.2,32.5z"/>
			<path class="st0" d="M39.9,33.6c-0.2,0-0.3,0.1-0.3,0.3c0,0.2,0.1,0.3,0.3,0.3c0.2,0,0.3-0.1,0.3-0.3
				C40.2,33.7,40.1,33.6,39.9,33.6z"/>
			<path class="st0" d="M41.2,33.6c-0.2,0-0.3,0.1-0.3,0.3c0,0.2,0.1,0.3,0.3,0.3c0.2,0,0.3-0.1,0.3-0.3
				C41.5,33.7,41.4,33.6,41.2,33.6z"/>
			<path class="st0" d="M39.9,32.1c0.2,0,0.3-0.1,0.3-0.3c0-0.2-0.1-0.3-0.3-0.3c-0.2,0-0.3,0.1-0.3,0.3
				C39.6,31.9,39.7,32.1,39.9,32.1z"/>
			<path class="st0" d="M41.2,32.1c0.2,0,0.3-0.1,0.3-0.3c0-0.2-0.1-0.3-0.3-0.3c-0.2,0-0.3,0.1-0.3,0.3
				C40.9,31.9,41,32.1,41.2,32.1z"/>
			<path class="st0" d="M40.5,32.5c-0.2,0-0.3,0.1-0.3,0.3s0.1,0.3,0.3,0.3s0.3-0.1,0.3-0.3S40.7,32.5,40.5,32.5z"/>
			<path class="st0" d="M41.8,32.5c-0.2,0-0.3,0.1-0.3,0.3s0.1,0.3,0.3,0.3c0.2,0,0.3-0.1,0.3-0.3S42,32.5,41.8,32.5z"/>
			<path class="st0" d="M46.5,32.5h-2.9c-0.1-0.3-0.2-0.5-0.4-0.8c0-0.4-0.2-0.8-0.5-1.1c-0.3-0.3-0.6-0.5-1-0.5
				c-0.3-0.3-0.7-0.5-1.1-0.5c-0.4,0-0.8,0.1-1.1,0.4c-0.4,0-0.8,0.2-1.1,0.5c-0.3,0.3-0.5,0.6-0.5,1c-0.2,0.3-0.4,0.6-0.4,0.9h-2.2
				c-0.5,0-0.8,0.4-0.8,0.8c0,0.1,0,0.1,0.1,0.1h3.1c0.1,0.1,0.1,0.3,0.3,0.4c0,0.4,0.2,0.8,0.5,1.1c0.3,0.3,0.7,0.5,1,0.5
				c0.2,0.2,0.5,0.4,0.8,0.4v1.6h-1.1c-0.3,0-0.5,0.2-0.5,0.5v0.2H42c0.3,0,0.5-0.2,0.5-0.5v-0.2h-1.6v-1.7c0.2-0.1,0.5-0.2,0.7-0.3
				c0.4,0,0.8-0.2,1.1-0.5c0.3-0.3,0.5-0.6,0.5-1c0.1-0.2,0.3-0.3,0.3-0.5h2.2c0.5,0,0.8-0.4,0.8-0.8C46.6,32.6,46.5,32.5,46.5,32.5
				z M42.5,33.5l-0.1,0.1l0,0.2c0,0.2-0.1,0.5-0.3,0.7c-0.2,0.2-0.4,0.3-0.6,0.3c0,0,0,0-0.1,0l-0.2,0l-0.1,0.1
				c-0.2,0.2-0.4,0.3-0.7,0.3c-0.3,0-0.5-0.1-0.7-0.3l-0.1-0.1l-0.2,0c0,0,0,0,0,0c-0.2,0-0.5-0.1-0.6-0.3c-0.2-0.2-0.3-0.4-0.3-0.6
				c0,0,0,0,0-0.1l0-0.2l-0.1-0.1c-0.2-0.2-0.3-0.4-0.3-0.7c0-0.3,0.1-0.5,0.3-0.7l0.1-0.1l0-0.2c0-0.2,0.1-0.5,0.3-0.7
				c0.2-0.2,0.4-0.3,0.7-0.3l0.2,0l0.1-0.1c0.2-0.2,0.4-0.3,0.7-0.3c0.3,0,0.5,0.1,0.7,0.3l0.1,0.1l0.2,0c0.2,0,0.5,0.1,0.7,0.3
				c0.2,0.2,0.3,0.4,0.3,0.7l0,0.2l0.1,0.1c0.2,0.2,0.3,0.4,0.3,0.7C42.9,33.1,42.7,33.4,42.5,33.5z"/>
		</g>
		<path class="st0" d="M67,53.4h-0.3c0-0.1-0.1-0.3-0.2-0.4l-0.1-0.1c0,0,0-0.1,0-0.1l-0.2-6.1c0-0.1-0.1-0.2-0.2-0.2h-1.3
			c-0.1,0-0.2,0.1-0.2,0.2l-0.2,6l0,0c0,0,0,0.1,0,0.1L64.1,53c0,0,0,0,0,0.1l0,0c-0.1,0.1-0.1,0.2-0.1,0.3c0,0.1,0,0.2,0,0.2l0,1.1
			c0,0,0,0.1-0.1,0.1h-0.8c0,0-0.1,0-0.1-0.1l0-1.1c0-0.1,0-0.2,0-0.2c0-0.1-0.1-0.2-0.1-0.3c0,0,0,0,0,0c0,0,0,0,0-0.1l-0.1-0.1
			c0,0,0-0.1,0-0.1l-0.2-6c0-0.1-0.1-0.2-0.2-0.2h-1.3c-0.1,0-0.2,0.1-0.2,0.2l-0.2,6c0,0,0,0.1,0,0.1L60.3,53c0,0,0,0,0,0.1
			c0,0,0,0,0,0c-0.1,0.1-0.1,0.2-0.1,0.3c0,0.1,0,0.2,0,0.2v0.5l0,0v0.5c0,0,0,0,0,0c0,0,0,0-0.1,0h-0.8c0,0-0.1,0-0.1,0
			c0,0,0,0,0,0v-0.5h0v-0.6c0-0.1,0-0.2,0-0.2c0-0.1-0.1-0.2-0.1-0.3c0,0,0,0,0,0c0,0,0,0,0-0.1l-0.1-0.1c0,0,0-0.1,0-0.1l-0.2-6
			c0-0.1-0.1-0.2-0.2-0.2h-1.3c-0.1,0-0.2,0.1-0.2,0.2l-0.2,6c0,0,0,0.1,0,0.1L56.5,53c0,0,0,0,0,0.1c0,0,0,0,0,0
			c-0.1,0.1-0.1,0.2-0.1,0.3c0,0.1,0,0.2,0,0.2v1.1c0,0,0,0.1-0.1,0.1h-0.8c0,0-0.1,0-0.1-0.1v-1.1c0-0.1,0-0.2,0-0.2
			c0-0.1-0.1-0.2-0.1-0.3l0,0c0,0,0,0,0-0.1L55,52.9c0,0,0-0.1,0-0.1l-0.2-6.1c0-0.1-0.1-0.2-0.2-0.2h-1.3c-0.1,0-0.2,0.1-0.2,0.2
			l-0.2,6.1c0,0,0,0.1,0,0.1L52.7,53c-0.1,0.1-0.2,0.2-0.2,0.4h-0.3c-0.1,0-0.2,0.1-0.2,0.2v0.5l0.5,0.3v5H65c1,0,1.8-0.8,1.8-1.8
			v-3.2l0.5-0.3v-0.5C67.3,53.5,67.2,53.4,67,53.4z M61,53.3c0.1-0.2,0.2-0.4,0.2-0.6l0.2-5.5h0.2l0.2,5.5c0,0.2,0.1,0.4,0.2,0.6
			l0.1,0.1h-1.2L61,53.3z M57.2,53.3c0.1-0.2,0.2-0.4,0.2-0.6l0.2-5.5h0.2l0.2,5.5c0,0.2,0.1,0.4,0.2,0.6l0.1,0.1h-1.2L57.2,53.3z
			 M53.4,53.3c0.1-0.2,0.2-0.3,0.2-0.5l0.2-5.5h0.3l0.2,5.5c0,0.2,0.1,0.4,0.2,0.5l0.1,0.2h-1.3L53.4,53.3z M65.9,57.2
			c0,0.7-0.5,1.2-1.2,1.2h-7.9v-1.2c0-0.4-0.2-0.7-0.5-0.9c-0.3-0.2-0.7-0.2-1,0c-0.3,0.2-0.5,0.5-0.5,0.9v1.2h-1.5v-4.3h1.2v0.6
			c0,0.4,0.4,0.8,0.8,0.8h1c0.4,0,0.8-0.4,0.8-0.8v-0.6h1.2v0.6c0,0.4,0.4,0.8,0.8,0.8h1c0.4,0,0.8-0.4,0.8-0.8v-0.6h1.2v0.6
			c0,0.4,0.4,0.8,0.8,0.8h1c0.1,0,0.1,0,0.2,0c0.4-0.1,0.6-0.4,0.6-0.8v-0.6h1.2V57.2z M64.7,53.5l0.1-0.2c0.1-0.2,0.2-0.3,0.2-0.5
			l0.2-5.5h0.3l0.2,5.5c0,0.2,0.1,0.4,0.2,0.5l0.1,0.2H64.7z"/>
		<g>
			<path class="st0" d="M43.1,57c-0.4,0-0.8,0.3-0.8,0.8v1.6h1.5v-1.6C43.9,57.3,43.5,57,43.1,57z"/>
			<path class="st0" d="M47,53.9h-0.3v-0.9c0-0.3-0.2-0.5-0.5-0.5l-1.4,0v-0.8c0-0.3-0.2-0.5-0.5-0.5h-2.4c-0.3,0-0.5,0.2-0.5,0.5
				v0.8l-1.4,0c-0.3,0-0.5,0.2-0.5,0.5v0.9h-0.3c-0.3,0-0.5,0.2-0.5,0.5l0,0.8c0,0.3-0.3,0.6-0.6,0.6H38c-0.4,0-0.7-0.3-0.7-0.7
				v-0.4c0-0.3-0.2-0.5-0.5-0.5h-1.5c-0.3,0-0.5,0.2-0.5,0.5V55c0,0.4-0.3,0.7-0.7,0.7h-0.9v0.6c0,1.6,1.3,3,3,3h3.7l1,0l0-1.5
				c0-1.2,1-2.2,2.2-2.2c1.2,0,2.2,1,2.2,2.2v1.5l2.2,0l0-4.9C47.5,54.1,47.3,53.9,47,53.9z M46.2,58.4v-0.7c0-1.7-1.4-3.1-3.1-3.1
				c-1.7,0-3.1,1.4-3.1,3.1l0,0.7l-3.9,0c-1.1,0-2-0.8-2.1-1.8c0.8,0,1.5-0.7,1.5-1.5h0.8c0,0.9,0.7,1.5,1.6,1.5h0.2
				c0.8,0,1.5-0.7,1.5-1.4l0-0.4H40c0.2,0,0.5-0.2,0.5-0.5v-0.9l1.4,0c0.3,0,0.5-0.2,0.5-0.5V52h1.6v0.8c0,0.3,0.2,0.5,0.5,0.5
				l1.4,0v0.9c0,0.2,0.2,0.5,0.5,0.5h0.4l0,3.7L46.2,58.4z"/>
			<path class="st0" d="M41.9,46.5c-0.2,0-0.5,0.2-0.5,0.5v1.7c-1.1,0.2-1.9,1.1-1.9,2.3v0.9c0.5,0,0.9-0.4,0.9-0.9v0
				c0-0.8,0.6-1.4,1.4-1.4c0.2,0,0.5-0.2,0.5-0.5v-1.7h0.8h0.8V49c0,0.2,0.2,0.5,0.5,0.5c0.8,0,1.4,0.6,1.4,1.4v0
				c0,0.5,0.4,0.9,0.9,0.9v-0.9c0-1.1-0.8-2.1-1.9-2.3v-1.7c0-0.2-0.2-0.5-0.5-0.5h-0.8v-0.6h0.7V45h-0.7v-0.7h-0.9V45H42v0.9h0.7
				v0.6H41.9z"/>
			<path class="st0" d="M33.6,46.5v2.9l-0.1,0c-0.2,0.1-0.3,0.2-0.3,0.4v3.6c0.5,0,0.9-0.4,0.9-0.9v-2.3H38v2.3
				c0,0.5,0.4,0.9,0.9,0.9v-3.6c0-0.2-0.1-0.4-0.3-0.4l-0.1,0v-2.9l0.4-0.1v-2h-2.3v0.4c0,0.3-0.2,0.5-0.5,0.5h0
				c-0.3,0-0.5-0.2-0.5-0.5v-0.4h-2.3v2L33.6,46.5z M34.1,45.2h0.8c0,0.3,0.3,0.6,0.6,0.6H36h0.5c0.3,0,0.6-0.3,0.6-0.6H38v0.5
				l-0.1,0c-0.2,0.1-0.3,0.2-0.3,0.4v3.2h-3.1v-3.2c0-0.2-0.1-0.4-0.3-0.4l-0.1,0V45.2z"/>
		</g>
	</g>
	<g>
		<g>
			<path class="st0" d="M19.4,84.9h-0.5c-0.1,0-0.2,0.1-0.2,0.3l0.7,1.3v0v7.2L12,84.9H8.2C8.1,84.9,8,85,8,85.2l0.7,1.3V99h3.5
				v-8.8l7.4,8.8l3.3,0V84.9L19.4,84.9z"/>
			<path class="st0" d="M37,91.4v-5.1l-0.7-1.1c-0.1-0.1,0.1-0.3,0.2-0.3l4.1,0v6.5c0,4.8-2.7,7.7-7.3,7.7c-4.6,0-7.3-2.9-7.3-7.7
				v-5.1l-0.7-1.1c-0.1-0.1,0.1-0.3,0.2-0.3l4.1,0v6.5c0,3.1,1.1,4.4,3.7,4.4C35.9,95.8,37,94.5,37,91.4L37,91.4z"/>
			<path class="st0" d="M43.7,99V86.4L43,85.2c0-0.1,0.1-0.3,0.2-0.3h13v1.6v1.7h-8.8v2.1h6.2v3.2h-6.2v2.4h9.1V99H43.7z"/>
			<path class="st0" d="M70.1,84.9l-3.8,10.5l-3.8-10.5h-4.6c-0.2,0-0.3,0.2-0.2,0.3l1.1,1.2l4.2,11V99l3.3,0l3.3,0v-1.6l4.2-11
				l1.1-1.2c0.1-0.1,0-0.3-0.2-0.3L70.1,84.9z"/>
			<path class="st0" d="M92,92c0,4.5-3.6,7.3-8.6,7.3c-5,0-8.6-2.8-8.6-7.3c0-4.5,3.6-7.3,8.6-7.3C88.4,84.7,92,87.5,92,92z
				 M83.4,88c-3.2,0-4.8,1-4.8,4c0,2.9,1.6,4,4.8,4c3.2,0,4.8-1,4.8-4C88.2,89,86.6,88,83.4,88z"/>
		</g>
		<path class="st0" d="M12.9,103.6h1.4v5.6h-1.3l-2.9-3.5v3.5H8.7v-5.6H10l2.9,3.5V103.6z"/>
		<path class="st0" d="M22.1,106.2v-2.6h1.4v2.6c0,1.9-1.1,3-2.9,3s-2.9-1.1-2.9-3v-2.6h1.4v2.6c0,1.2,0.4,1.7,1.4,1.7
			C21.7,107.9,22.1,107.4,22.1,106.2L22.1,106.2z"/>
		<path class="st0" d="M28.5,107.9h3.6v1.3h-5v-5.6H32v1.3h-3.5v0.8h2.8v1.3h-2.8V107.9z"/>
		<path class="st0" d="M39.6,103.6h1.6l-2,5.6h-2.1l-2-5.6h1.6l1.5,4.1L39.6,103.6z"/>
		<path class="st0" d="M50.6,106.4c0,1.8-1.4,2.9-3.4,2.9s-3.4-1.1-3.4-2.9c0-1.8,1.4-2.9,3.4-2.9S50.6,104.7,50.6,106.4z
			 M47.2,104.9c-1.3,0-1.9,0.4-1.9,1.6c0,1.2,0.6,1.6,1.9,1.6s1.9-0.4,1.9-1.6C49.1,105.3,48.5,104.9,47.2,104.9z"/>
		<path class="st0" d="M60.9,107.9H64v1.3h-4.6v-5.6h1.4V107.9z"/>
		<path class="st0" d="M68.7,107.9h3.6v1.3h-5v-5.6h4.9v1.3h-3.5v0.8h2.8v1.3h-2.8V107.9z"/>
		<path class="st0" d="M82.1,106.4c0,1.8-1.4,2.9-3.4,2.9s-3.4-1.1-3.4-2.9c0-1.8,1.4-2.9,3.4-2.9C80.6,103.6,82.1,104.7,82.1,106.4
			z M80.6,106.4c0-1.2-0.6-1.6-1.9-1.6c-1.3,0-1.9,0.4-1.9,1.6c0,1.2,0.6,1.6,1.9,1.6C80,108,80.6,107.6,80.6,106.4z M78.7,101.5
			h-1.2c-0.2,0-0.4,0.1-0.5,0.3l-0.4,0.8h2h1.2c0.2,0,0.4-0.1,0.5-0.3l0.4-0.8H78.7z"/>
		<path class="st0" d="M89.6,103.6H91v5.6h-1.3l-2.9-3.5v3.5h-1.4v-5.6h1.3l2.9,3.5V103.6z"/>
		<g>
			<path class="st0" d="M17.6,79.8h2.5v0.9h-3.6v-4h3.5v0.9h-2.5v0.6h2v0.9h-2V79.8z"/>
			<path class="st0" d="M22.3,79.8h2.2v0.9h-3.3v-4h1V79.8z"/>
			<path class="st0" d="M30.5,78.5h2.3l0,2.2h-1v-0.3c-0.4,0.2-0.9,0.4-1.4,0.4c-1.4,0-2.4-0.8-2.4-2c0-1.2,1-2,2.4-2
				c1.5,0,2.2,0.7,2.2,0.7L31.9,78c0,0-0.4-0.4-1.5-0.4c-0.9,0-1.3,0.3-1.3,1.1c0,0.8,0.4,1.1,1.3,1.1c0.5,0,0.9-0.1,1.1-0.4h-1
				V78.5z"/>
			<path class="st0" d="M38.6,78.7c0,1.2-1,2-2.4,2c-1.4,0-2.4-0.8-2.4-2c0-1.2,1-2,2.4-2C37.6,76.6,38.6,77.4,38.6,78.7z
				 M36.2,77.6c-0.9,0-1.3,0.3-1.3,1.1s0.4,1.1,1.3,1.1c0.9,0,1.3-0.3,1.3-1.1C37.6,77.9,37.1,77.6,36.2,77.6z"/>
			<path class="st0" d="M43.5,79.6c0,0.8-0.5,1.1-1.5,1.1h-2.3v-4h2c1,0,1.5,0.4,1.5,1.1c0,0.3-0.1,0.6-0.3,0.7
				C43.4,78.8,43.5,79.2,43.5,79.6z M42.2,77.9c0-0.2-0.1-0.3-0.5-0.3h-1v0.6h1C42.2,78.2,42.2,78.1,42.2,77.9z M40.7,79.8H42
				c0.3,0,0.4-0.1,0.4-0.3c0-0.2-0.1-0.3-0.7-0.3h-1V79.8z"/>
			<path class="st0" d="M44.6,80.7v-4h1v4H44.6z"/>
			<path class="st0" d="M48,79.8h2.5v0.9h-3.6v-4h3.5v0.9H48v0.6h2v0.9h-2V79.8z"/>
			<path class="st0" d="M54.7,79.5l0.8,1.1h-1.2l-0.7-1h-0.9v1h-1v-4h2.5c1.2,0,1.5,0.9,1.5,1.4C55.6,78.7,55.4,79.3,54.7,79.5z
				 M54.1,77.6h-1.4v1.1h1.5c0.5,0,0.5-0.5,0.5-0.5C54.6,78,54.6,77.6,54.1,77.6z"/>
			<path class="st0" d="M59.7,76.7h1v4h-0.9l-2.1-2.5v2.5h-1v-4h0.9l2.1,2.5V76.7z"/>
			<path class="st0" d="M66.6,78.7c0,1.2-1,2-2.4,2c-1.4,0-2.4-0.8-2.4-2c0-1.2,1-2,2.4-2C65.6,76.6,66.6,77.4,66.6,78.7z
				 M64.2,77.6c-0.9,0-1.3,0.3-1.3,1.1s0.4,1.1,1.3,1.1s1.3-0.3,1.3-1.1C65.5,77.9,65.1,77.6,64.2,77.6z"/>
			<path class="st0" d="M74.3,78.7c0,1.3-0.7,2-1.8,2h-2.2v-4h2.2C73.6,76.7,74.3,77.4,74.3,78.7z M72.5,77.6h-1.1v2.2h1.1
				c0.4,0,0.7,0,0.7-1.1C73.2,77.6,72.9,77.6,72.5,77.6z"/>
			<path class="st0" d="M76.4,79.8H79v0.9h-3.6v-4h3.5v0.9h-2.5v0.6h2v0.9h-2V79.8z"/>
			<path class="st0" d="M81.1,79.8h2.2v0.9h-3.3v-4h1V79.8z"/>
		</g>
	</g>
</g>
</svg>
